HIERARCHY
ROOT Hips
{
 OFFSET 0.000000 0.000000 0.000000
 CHANNELS 6 Xposition Yposition Zposition Yrotation Xrotation Zrotation
 JOINT Chest
 {
  OFFSET 0.000000 10.388337 0.005184
  CHANNELS 3 Yrotation Xrotation Zrotation
  JOINT Chest2
  {
   OFFSET 0.000000 10.458247 -0.010579
   CHANNELS 3 Yrotation Xrotation Zrotation
   JOINT Chest3
   {
    OFFSET 0.000000 10.415828 0.000000
    CHANNELS 3 Yrotation Xrotation Zrotation
    JOINT Chest4
    {
     OFFSET 0.000000 10.405206 0.000000
     CHANNELS 3 Yrotation Xrotation Zrotation
     JOINT Neck
     {
      OFFSET 0.000000 15.720090 0.000000
      CHANNELS 3 Yrotation Xrotation Zrotation
      JOINT Head
      {
       OFFSET 0.000000 9.732643 -0.022378
       CHANNELS 3 Yrotation Xrotation Zrotation
       End Site
       {
        OFFSET 0.000000 18.603619 -0.011814
       }
      }
     }
     JOINT RightCollar
     {
      OFFSET -3.167735 10.388953 0.000000
      CHANNELS 3 Yrotation Xrotation Zrotation
      JOINT RightShoulder
      {
       OFFSET -14.584825 0.000000 0.000000
       CHANNELS 3 Yrotation Xrotation Zrotation
       JOINT RightElbow
       {
        OFFSET 0.000000 -31.921689 0.000000
        CHANNELS 3 Yrotation Xrotation Zrotation
        JOINT RightWrist
        {
         OFFSET 0.000000 -25.835217 0.000000
         CHANNELS 3 Yrotation Xrotation Zrotation
         End Site
         {
          OFFSET 0.000000 -19.128920 0.000000
         }
        }
       }
      }
     }
     JOINT LeftCollar
     {
      OFFSET 3.167735 10.388953 0.000000
      CHANNELS 3 Yrotation Xrotation Zrotation
      JOINT LeftShoulder
      {
       OFFSET 14.584825 0.000000 0.000000
       CHANNELS 3 Yrotation Xrotation Zrotation
       JOINT LeftElbow
       {
        OFFSET 0.000000 -31.921689 0.000000
        CHANNELS 3 Yrotation Xrotation Zrotation
        JOINT LeftWrist
        {
         OFFSET 0.000000 -25.835217 0.000000
         CHANNELS 3 Yrotation Xrotation Zrotation
         End Site
         {
          OFFSET 0.000000 -19.128920 0.000000
         }
        }
       }
      }
     }
    }
   }
  }
 }
 JOINT RightHip
 {
  OFFSET -8.403278 -0.025659 -0.002592
  CHANNELS 3 Yrotation Xrotation Zrotation
  JOINT RightKnee
  {
   OFFSET 0.000000 -44.040977 0.002477
   CHANNELS 3 Yrotation Xrotation Zrotation
   JOINT RightAnkle
   {
    OFFSET 0.000000 -42.951162 0.004189
    CHANNELS 3 Yrotation Xrotation Zrotation
    JOINT RightToe
    {
     OFFSET 0.000000 -5.494238 12.197485
     CHANNELS 3 Yrotation Xrotation Zrotation
     End Site
     {
      OFFSET 0.000000 -1.538716 6.371628
     }
    }
   }
  }
 }
 JOINT LeftHip
 {
  OFFSET 8.403278 -0.025659 -0.002592
  CHANNELS 3 Yrotation Xrotation Zrotation
  JOINT LeftKnee
  {
   OFFSET 0.000000 -44.040977 0.002477
   CHANNELS 3 Yrotation Xrotation Zrotation
   JOINT LeftAnkle
   {
    OFFSET 0.000000 -42.951162 0.004189
    CHANNELS 3 Yrotation Xrotation Zrotation
    JOINT LeftToe
    {
     OFFSET 0.000000 -5.494238 12.197485
     CHANNELS 3 Yrotation Xrotation Zrotation
     End Site
     {
      OFFSET 0.000000 -1.538716 6.371628
     }
    }
   }
  }
 }
}
MOTION
Frames: 15
Frame Time: 0.008333
59.780672 89.674730 -52.531325 149.624335 -4.960613 3.850530 -2.578977 6.454077 0.067568 -0.129491 0.291205 -0.021189 -0.227118 0.510555 -0.037585 -2.847022 6.310298 -0.609456 -1.735393 16.589693 1.583767 -3.767835 -4.910540 3.539548 6.333075 2.543098 1.591813 -10.122686 11.094922 -13.393878 -17.961345 -2.145632 9.741316 -6.487650 -3.775720 -12.936467 -2.969401 7.506857 -0.415045 18.753540 -4.741593 12.304211 38.779769 -39.982430 -78.303268 9.709050 -26.780202 -0.915491 -28.546346 -11.088977 -6.266209 12.074748 -2.419939 6.229932 -9.440088 4.512087 -2.887170 0.225213 -4.868681 -0.426055 -12.172055 16.688819 -6.896344 8.985715 15.843420 2.396618 -5.889198 -14.506742 -1.564152 -0.404631 -13.253016 2.189138
60.467718 89.733680 -53.051668 149.543752 -4.894922 3.689173 -2.330561 6.453055 0.209536 -0.125656 0.285595 -0.012137 -0.220458 0.500948 -0.021701 -2.786208 6.268448 -0.411674 -1.765155 16.640817 1.549101 -3.808844 -4.815903 3.483506 6.411923 2.598666 1.609938 -9.885593 10.902924 -13.199157 -17.993966 -2.176779 9.416889 -6.447729 -4.034335 -13.253300 -2.984461 7.670279 -0.421071 18.865637 -4.615774 12.085471 38.781380 -39.816992 -78.097996 9.706846 -26.795321 -0.783944 -28.892746 -11.262379 -5.845795 12.668899 -1.251077 6.112428 -9.332624 4.808416 -2.318931 0.180049 -4.850222 -0.673459 -11.205569 16.454230 -6.153047 9.066862 17.233625 2.550312 -6.769642 -13.555566 -1.853537 -0.506823 -15.478333 2.488265
61.150963 89.788071 -53.581064 149.471434 -4.824016 3.597765 -2.116473 6.459190 0.309329 -0.121567 0.278084 -0.005464 -0.213376 0.488042 -0.009979 -2.728771 6.199500 -0.262380 -1.783543 16.708301 1.524071 -3.831479 -4.690980 3.440687 6.488995 2.665402 1.601045 -9.589973 10.700278 -12.973198 -17.999193 -2.198930 9.082665 -6.447797 -4.259733 -13.557301 -2.974793 7.825755 -0.412556 18.930956 -4.456317 11.858787 38.795144 -39.663922 -77.887748 9.702228 -26.809030 -0.678974 -28.830725 -11.436643 -5.626919 12.964021 -0.138376 6.091565 -9.226648 4.974081 -1.790477 0.037115 -4.737430 -0.874885 -10.295726 16.096699 -5.464236 9.082107 18.758425 2.670944 -7.616226 -12.464836 -2.082746 -0.611101 -17.846019 2.784376
61.831081 89.835266 -54.105794 149.398275 -4.712343 3.547498 -1.912119 6.437719 0.395792 -0.117493 0.269938 -0.001217 -0.206328 0.474021 -0.002503 -2.675512 6.118726 -0.163877 -1.798146 16.783176 1.515549 -3.852528 -4.551751 3.426812 6.560844 2.731419 1.563306 -9.252707 10.486063 -12.715036 -18.011984 -2.212425 8.772588 -6.480235 -4.433026 -13.825829 -2.943596 7.965044 -0.389330 18.940406 -4.276206 11.645905 38.837770 -39.524413 -77.705858 9.702692 -26.825214 -0.620971 -28.376912 -11.615889 -5.535735 12.972039 0.908518 6.132194 -9.162792 4.981901 -1.368604 -0.145862 -4.501437 -0.986057 -9.429263 15.590802 -4.811358 9.088120 20.405286 2.795254 -8.423033 -11.273116 -2.279391 -0.731922 -20.317564 3.075476
62.505258 89.875668 -54.614758 149.370826 -4.539369 3.530788 -1.744672 6.362879 0.469647 -0.113934 0.262489 0.000819 -0.200176 0.461184 0.001092 -2.631440 6.041536 -0.113894 -1.816112 16.854931 1.527738 -3.887037 -4.417193 3.452525 6.617142 2.775824 1.492590 -8.898616 10.265616 -12.425640 -18.043960 -2.219653 8.513392 -6.530073 -4.535934 -14.044048 -2.901199 8.081611 -0.349422 18.914181 -4.089815 11.466808 38.906745 -39.402743 -77.580936 9.714490 -26.857164 -0.633777 -27.717124 -11.818080 -5.516378 12.750392 1.892839 6.216359 -9.135804 4.807855 -1.118045 -0.296073 -4.122818 -0.975170 -8.654752 14.910578 -4.193725 9.142573 22.176336 2.950755 -9.207375 -10.055405 -2.469245 -0.867563 -22.824064 3.365940
63.180888 89.911478 -55.098660 149.327994 -4.317301 3.502141 -1.532072 6.244786 0.574800 -0.111538 0.256800 0.001038 -0.196045 0.451368 0.001492 -2.605752 5.979612 -0.106183 -1.837357 16.916525 1.559649 -3.934740 -4.300399 3.516217 6.649094 2.787899 1.390747 -8.548577 10.038376 -12.109869 -18.086429 -2.220631 8.312448 -6.597452 -4.556515 -14.196990 -2.852254 8.165708 -0.292811 18.888556 -3.901026 11.337338 38.979336 -39.305798 -77.525850 9.739096 -26.914579 -0.734423 -27.023681 -12.003066 -5.473215 12.392041 2.815176 6.310759 -8.975716 4.443710 -1.008019 -0.478109 -3.600362 -0.885212 -7.916396 14.075156 -3.565556 9.277890 24.078077 3.148047 -9.935852 -8.819568 -2.653850 -1.037337 -25.364221 3.636194
63.859545 89.946790 -55.562248 149.388074 -4.115248 3.462265 -1.392528 6.136686 0.688495 -0.110624 0.253755 0.000071 -0.194481 0.446106 -0.000202 -2.601055 5.943965 -0.127718 -1.861164 16.964141 1.607676 -3.993189 -4.208612 3.611107 6.659332 2.771995 1.264416 -8.215703 9.784969 -11.776118 -18.128148 -2.218881 8.166265 -6.682396 -4.485976 -14.288123 -2.799274 8.207986 -0.226343 18.885920 -3.715532 11.272362 39.043032 -39.240980 -77.546905 9.771834 -26.989868 -0.912272 -26.637785 -12.111951 -5.369157 12.058101 3.659004 6.356988 -8.738946 3.909837 -1.056099 -0.611138 -2.959252 -0.707574 -7.381046 13.149461 -2.951349 9.507589 26.107415 3.383411 -10.593220 -7.681361 -2.862149 -1.217246 -27.829471 3.900602
64.549348 89.984080 -55.998806 149.444318 -3.941642 3.355261 -1.216241 6.052696 0.860006 -0.110823 0.253809 -0.001365 -0.194834 0.446197 -0.002727 -2.606743 5.943002 -0.161520 -1.893721 16.991246 1.669116 -4.073179 -4.153736 3.734599 6.646617 2.725174 1.120546 -7.912469 9.498443 -11.434034 -18.158169 -2.216197 8.072423 -6.779975 -4.335078 -14.331117 -2.754141 8.203199 -0.155280 18.918031 -3.547828 11.276050 39.098191 -39.215597 -77.648254 9.786087 -27.061506 -1.114469 -26.585429 -12.094582 -5.098428 11.902402 4.400708 6.308294 -8.420411 3.237040 -1.185733 -0.745835 -2.222382 -0.508128 -6.990600 12.164836 -2.304135 9.825769 28.257392 3.644660 -11.067150 -6.672393 -3.117565 -1.431569 -30.108220 4.148680
65.242425 90.027001 -56.417817 149.591498 -3.836502 3.221717 -1.108433 6.029502 1.027809 -0.111575 0.256923 -0.002709 -0.196120 0.451576 -0.005095 -2.610399 5.979004 -0.193492 -1.939536 16.990052 1.741461 -4.182582 -4.150034 3.883988 6.607999 2.639675 0.964904 -7.641318 9.197671 -11.093451 -18.166901 -2.207529 8.027127 -6.885544 -4.139430 -14.331310 -2.727285 8.145479 -0.080120 18.983737 -3.406146 11.341835 39.149071 -39.242627 -77.823076 9.744433 -27.115558 -1.278646 -26.893787 -11.947847 -4.727768 11.924301 5.046572 6.160679 -8.181004 2.523178 -1.411438 -0.774138 -1.482095 -0.269464 -6.901481 11.163281 -1.700328 10.228960 30.501787 3.932395 -11.324702 -5.872084 -3.458363 -1.643822 -31.900105 4.387990
65.928860 90.077579 -56.813015 149.692105 -3.732931 3.074842 -0.939649 6.010797 1.178204 -0.112140 0.262331 -0.003509 -0.197051 0.460926 -0.006507 -2.599447 6.045125 -0.212225 -1.996172 16.959452 1.820001 -4.315460 -4.199811 4.049904 6.541662 2.525404 0.796775 -7.387170 8.884863 -10.763233 -18.146668 -2.189073 8.027610 -6.990359 -3.927016 -14.300256 -2.720378 8.040107 -0.002849 19.067101 -3.294444 11.460850 39.199091 -39.329818 -78.042372 9.640442 -27.157303 -1.397123 -27.236894 -11.751133 -4.300493 12.006756 5.639880 5.962852 -7.955467 1.767784 -1.651804 -0.801441 -0.744271 -0.063719 -6.967249 10.109812 -1.149973 10.717197 32.791871 4.255436 -11.315151 -5.262450 -3.910449 -1.841991 -32.975709 4.591444
66.600717 90.139924 -57.202516 149.852256 -3.689973 2.965015 -0.837677 6.044851 1.245391 -0.111575 0.268735 -0.003301 -0.195987 0.472009 -0.006146 -2.559629 6.128402 -0.206490 -2.063301 16.906528 1.898773 -4.468994 -4.290162 4.221017 6.438562 2.410843 0.614918 -7.138774 8.543333 -10.452071 -18.092119 -2.160302 8.071530 -7.086417 -3.713138 -14.255511 -2.733804 7.907920 0.070506 19.154145 -3.217189 11.620839 39.242076 -39.467670 -78.264116 9.503386 -27.184333 -1.507692 -27.517283 -11.510254 -3.973161 12.072970 6.216908 5.788739 -7.890091 1.070104 -1.916428 -0.760296 -0.123218 0.120901 -7.251681 9.073710 -0.708930 11.272112 35.083353 4.609613 -11.098902 -4.850247 -4.466371 -1.941147 -33.137328 4.727271
67.254973 90.216604 -57.585959 150.000300 -3.675310 2.878314 -0.733597 6.098518 1.248688 -0.109067 0.275172 -0.001767 -0.191517 0.483166 -0.003451 -2.478165 6.219360 -0.168868 -2.145532 16.839946 1.972611 -4.649640 -4.404975 4.389052 6.299143 2.314279 0.434448 -6.903164 8.166747 -10.177967 -18.015926 -2.120889 8.152389 -7.174113 -3.505189 -14.208867 -2.774653 7.766914 0.134711 19.237945 -3.172400 11.806686 39.281008 -39.636164 -78.468555 9.370764 -27.182189 -1.636680 -27.560106 -11.258319 -3.764690 12.110320 6.785756 5.691394 -7.972672 0.444145 -2.139970 -0.741908 0.365630 0.231313 -7.595165 8.059852 -0.333410 11.893599 37.321269 4.999919 -10.775435 -4.599840 -4.999144 -1.885298 -32.285232 4.692950
67.885967 90.310226 -57.964946 150.130280 -3.658807 2.818895 -0.628034 6.138498 1.189551 -0.104094 0.281150 0.001122 -0.182733 0.493548 0.001631 -2.346077 6.312837 -0.098598 -2.244925 16.767352 2.037998 -4.859695 -4.530075 4.547912 6.138944 2.231294 0.279557 -6.684707 7.766941 -9.961947 -17.934620 -2.074917 8.255392 -7.257655 -3.298685 -14.166333 -2.847108 7.629352 0.188284 19.311769 -3.154702 12.005117 39.332136 -39.807191 -78.660852 9.267568 -27.146360 -1.791831 -27.342032 -11.030857 -3.672345 12.114876 7.342371 5.681254 -8.195320 -0.084788 -2.299060 -0.758653 0.705060 0.262294 -7.902917 7.080537 -0.005716 12.591918 39.418957 5.450095 -10.491342 -4.478459 -5.395527 -1.633370 -30.392923 4.435270
68.487690 90.422551 -58.337819 150.271037 -3.595349 2.790642 -0.554541 6.115574 1.070299 -0.096797 0.286421 0.005130 -0.169882 0.502725 0.008684 -2.166893 6.403605 -0.001146 -2.357837 16.696743 2.093229 -5.091440 -4.650897 4.692809 5.979794 2.157394 0.163988 -6.469240 7.361802 -9.809259 -17.860513 -2.033341 8.360540 -7.344585 -3.084805 -14.123784 -2.946394 7.510008 0.231935 19.375826 -3.165014 12.202612 39.394672 -39.957994 -78.839760 9.202407 -27.093835 -1.964903 -26.967040 -10.872865 -3.648788 12.069372 7.886620 5.724251 -8.489450 -0.510238 -2.395931 -0.792171 0.898033 0.237181 -8.143464 6.109435 0.279831 13.338219 41.318552 5.969337 -10.313814 -4.417856 -5.642013 -1.193885 -27.537066 3.991971
69.075844 90.555532 -58.720855 150.452195 -3.589039 2.755503 -0.539257 6.131438 0.939866 -0.087917 0.291097 0.009797 -0.154262 0.510877 0.016897 -1.955545 6.488498 0.112530 -2.479037 16.634997 2.136877 -5.334290 -4.755094 4.818894 5.837646 2.096439 0.088336 -6.244469 6.960512 -9.710918 -17.822555 -2.016023 8.460152 -7.425599 -2.861254 -14.074082 -3.060380 7.420473 0.268220 19.431593 -3.208650 12.384052 39.455801 -40.082689 -78.991269 9.175058 -27.043226 -2.127493 -26.609573 -10.672207 -3.653326 11.955638 8.428640 5.760720 -8.795397 -0.765961 -2.468897 -0.776190 0.878583 0.210652 -8.027692 5.320911 0.565947 13.788355 42.921449 6.536074 -10.253499 -4.414722 -5.792850 -0.612847 -23.758173 3.456007
